<svg width="248" height="59" viewBox="0 0 248 59" fill="none" xmlns="http://www.w3.org/2000/svg">
<path d="M33.8099 23.56L50.34 0H32.99L14.84 25.67V0H0L0.0200195 48.4L14.7799 48.38V48.31L50.35 48.38L33.97 28.03C32.92 26.75 32.8599 24.92 33.8099 23.56ZM29.27 29.59L14.77 48.31L14.83 25.9H27.46C29.36 25.92 30.43 28.1 29.27 29.59Z" fill="#3050EC"/>
<path d="M62.4697 2.6499H70.6797V26.8199L84.2797 11.8799H93.3898L79.7297 26.1799L95.1897 45.2299H86.0797L74.7297 31.3799L70.6897 35.6099V45.2299H62.4797V2.6499H62.4697Z" fill="black"/>
<path d="M95.2998 28.4897C95.2998 16.1797 102.93 11.2397 111.65 11.2397C120.24 11.2397 127.3 15.9897 127.3 28.1697C127.3 29.3197 127.24 29.9697 127.11 30.6697H103.06C103.57 36.8897 106.72 39.5897 111.97 39.5897C116.14 39.5897 118.58 37.9897 119.54 34.7797H126.85C125.05 42.3497 119.22 45.8797 111.78 45.8797C103.13 45.8697 95.2998 40.9297 95.2998 28.4897ZM119.54 25.6697C119.35 20.9897 116.91 17.5197 111.52 17.5197C106.71 17.5197 103.7 20.2097 103.12 25.6697H119.54Z" fill="black"/>
<path d="M140.39 47.0899C141.1 45.3599 141.1 44.3299 140.39 42.5999L128.08 11.8799H136.48L145.01 34.9699L153.6 11.8799H162.07L148.22 46.1299C144.31 55.7499 140.14 58.8899 131.42 57.9299V50.9399C137.56 51.7699 139.42 49.3999 140.39 47.0899Z" fill="black"/>
<path d="M181.88 39.0701C186.37 39.0701 189.64 36.3801 189.64 30.9201V11.8701H197.85V45.2201H189.64V40.6201C189.64 40.6201 187.91 45.8601 178.85 45.8601C172.31 45.8601 166.87 41.8801 166.87 32.8401V11.8701H175.08V30.9201C175.08 36.3801 177.45 39.0701 181.88 39.0701Z" fill="black"/>
<path d="M220.74 18.0297C216.25 18.0297 212.979 20.7197 212.979 26.1797V45.2297H204.77V11.8797H212.979V16.9297C212.979 16.9297 214.809 11.2397 223.779 11.2397C230.319 11.2397 235.75 15.2198 235.75 24.2598V45.2297H227.539V26.1797C227.539 20.7297 225.17 18.0297 220.74 18.0297Z" fill="black"/>
<path d="M241.11 19.8197C240.55 19.5997 240.06 19.2897 239.64 18.8897C239.23 18.4997 238.9 18.0297 238.65 17.4897C238.41 16.9497 238.28 16.3497 238.28 15.6997C238.28 15.0597 238.4 14.4697 238.65 13.9297C238.89 13.3897 239.22 12.9197 239.64 12.5297C240.05 12.1397 240.54 11.8197 241.11 11.5897C241.67 11.3597 242.27 11.2397 242.89 11.2397C243.53 11.2397 244.13 11.3597 244.7 11.5897C245.27 11.8197 245.77 12.1297 246.2 12.5297C246.63 12.9197 246.97 13.3897 247.22 13.9297C247.47 14.4697 247.6 15.0597 247.6 15.6997C247.6 16.3497 247.48 16.9497 247.23 17.4897C246.99 18.0297 246.65 18.4997 246.23 18.8897C245.81 19.2797 245.31 19.5897 244.74 19.8197C244.17 20.0397 243.55 20.1597 242.89 20.1597C242.27 20.1497 241.68 20.0397 241.11 19.8197ZM244.35 18.9697C244.8 18.7897 245.2 18.5497 245.53 18.2397C245.86 17.9297 246.13 17.5498 246.32 17.1198C246.52 16.6898 246.62 16.2097 246.62 15.6897C246.62 15.1897 246.52 14.7197 246.32 14.2897C246.12 13.8597 245.85 13.4797 245.52 13.1597C245.18 12.8397 244.79 12.5897 244.34 12.4197C243.89 12.2397 243.41 12.1597 242.89 12.1597C242.39 12.1597 241.92 12.2497 241.47 12.4197C241.03 12.5997 240.65 12.8397 240.32 13.1597C239.99 13.4797 239.74 13.8597 239.55 14.2897C239.36 14.7197 239.26 15.1897 239.26 15.6897C239.26 16.2097 239.35 16.6798 239.55 17.1198C239.74 17.5498 240 17.9297 240.32 18.2397C240.65 18.5497 241.03 18.7997 241.47 18.9697C241.91 19.1497 242.38 19.2297 242.89 19.2297C243.41 19.2397 243.9 19.1497 244.35 18.9697ZM241.23 13.4097H243.29C243.74 13.4097 244.11 13.5497 244.4 13.8197C244.69 14.0897 244.84 14.4397 244.84 14.8597C244.84 15.2797 244.7 15.6297 244.41 15.9097C244.12 16.1897 243.76 16.3297 243.31 16.3297H242.03V15.5597H243.19C243.41 15.5597 243.58 15.4998 243.72 15.3698C243.86 15.2398 243.92 15.0698 243.92 14.8698C243.92 14.6798 243.85 14.5197 243.72 14.3897C243.58 14.2597 243.41 14.1997 243.19 14.1997H242.05L242.13 14.1198V17.8097H241.23V13.4097ZM242.94 16.2197L243.84 16.0597L244.88 17.7897H243.84L242.94 16.2197Z" fill="black"/>
</svg>
